<?xml version="1.0" standalone="no"?>
<!DOCTYPE svg PUBLIC "-//W3C//DTD SVG 20010904//EN"
 "http://www.w3.org/TR/2001/REC-SVG-20010904/DTD/svg10.dtd">
<svg version="1.0" xmlns="http://www.w3.org/2000/svg"
 width="45.000000pt" height="40.000000pt" viewBox="0 0 223.000000 229.000000"
 preserveAspectRatio="xMidYMid meet">
<metadata>
Created by potrace 1.16, written by Peter Selinger 2001-2019
</metadata>
<g transform="translate(0.000000,229.000000) scale(0.100000,-0.100000)"
fill="#e0dddd" stroke="none">
<path d="M445 2051 c-79 -33 -57 -141 29 -141 31 0 31 0 47 -83 21 -109 68
-219 141 -329 65 -99 198 -238 266 -278 24 -14 61 -38 83 -53 60 -42 52 -60
-56 -131 -226 -149 -404 -415 -439 -658 -7 -46 -8 -48 -41 -48 -71 0 -105 -74
-56 -123 l22 -22 678 0 c654 0 680 1 700 19 27 25 28 79 1 106 -12 12 -33 20
-54 20 -34 0 -34 0 -45 64 -44 254 -242 535 -462 656 -60 33 -64 38 -64 70 0
31 5 38 46 60 237 129 446 424 483 683 7 46 8 47 42 47 65 0 97 69 55 121
l-19 24 -669 2 c-367 1 -677 -2 -688 -6z m1201 -211 c-9 -103 -58 -243 -111
-322 -83 -124 -235 -268 -322 -304 -34 -15 -63 -58 -63 -94 0 -39 34 -81 90
-111 110 -59 240 -190 313 -314 42 -73 85 -210 94 -299 l6 -66 -31 0 c-33 0
-33 0 -47 95 l-6 40 -142 1 c-78 1 -224 9 -325 18 -233 20 -364 21 -401 1 -30
-15 -35 -27 -46 -107 -7 -45 -9 -48 -36 -48 -27 0 -29 2 -29 43 0 65 37 204
75 282 64 132 205 281 337 357 65 37 93 81 83 127 -7 33 -32 57 -95 93 -60 35
-177 139 -233 209 -93 114 -150 252 -165 397 l-8 72 534 0 535 0 -7 -70z"/>
<path d="M691 1766 c-12 -14 -10 -27 14 -89 65 -169 224 -365 346 -427 22 -12
45 -32 51 -46 l11 -25 31 32 c17 17 59 50 93 74 77 54 172 165 241 280 65 110
65 118 10 110 -66 -10 -236 10 -459 54 -266 52 -321 58 -338 37z"/>
</g>
</svg>
